<svg width="202" height="109" viewBox="0 0 202 109" fill="none" xmlns="http://www.w3.org/2000/svg">
<rect x="2.53444" y="2.7566" width="197.085" height="103.345" rx="51.6724" fill="white"/>
<path d="M55.4466 42.3529C54.0189 42.3529 52.7299 42.69 51.5797 43.3643C50.4692 44.0385 49.5173 45.0102 48.7241 46.2793C47.9309 47.5088 47.336 49.0159 46.9394 50.8007C46.5428 52.5854 46.3445 54.5883 46.3445 56.8093C46.3445 59.8235 46.6816 62.4015 47.3558 64.5432C48.0301 66.6452 49.0612 68.2515 50.4494 69.362C51.8375 70.4725 53.6024 71.0277 55.7441 71.0277C57.4495 71.0277 59.1153 70.8294 60.7414 70.4328C62.4071 70.0362 64.1324 69.4809 65.9171 68.7671V76.3224C64.172 77.076 62.4071 77.6313 60.6224 77.9882C58.8376 78.3451 56.8943 78.5236 54.7922 78.5236C50.5485 78.5236 47.0782 77.6313 44.3813 75.8465C41.6843 74.0221 39.6815 71.4838 38.3726 68.2316C37.1035 64.9398 36.4689 61.1125 36.4689 56.7498C36.4689 53.5373 36.8854 50.6024 37.7182 47.9451C38.5511 45.2482 39.7806 42.928 41.4067 40.9846C43.0328 39.0412 45.0158 37.5341 47.3558 36.4633C49.7355 35.3924 52.4522 34.857 55.5061 34.857C57.4892 34.857 59.5714 35.1346 61.7527 35.6899C63.9737 36.2055 65.8973 36.9194 67.5234 37.8316L64.4893 45.149C63.0219 44.3955 61.5346 43.7411 60.0275 43.1858C58.56 42.6305 57.0331 42.3529 55.4466 42.3529ZM77.0132 77.9287V35.4519H86.6507V70.4923H102.416V77.9287H77.0132ZM128.655 77.9287H109.202V72.8125L114.139 70.4328V42.9478L109.202 40.5682V35.4519H128.655V40.5682L123.777 42.9478V70.4328L128.655 72.8125V77.9287ZM151.421 35.4519C156.537 35.4519 160.305 36.6418 162.724 39.0214C165.183 41.3614 166.413 44.5938 166.413 48.7185C166.413 50.5826 166.155 52.3673 165.639 54.0727C165.124 55.7385 164.271 57.2456 163.081 58.594C161.891 59.9029 160.305 60.934 158.322 61.6876C156.379 62.4411 153.979 62.8179 151.123 62.8179H147.792V77.9287H138.154V35.4519H151.421ZM151.123 42.8289H147.792V55.441H150.231C151.5 55.441 152.631 55.2229 153.622 54.7866C154.614 54.3503 155.387 53.6563 155.942 52.7044C156.498 51.7525 156.775 50.5231 156.775 49.0159C156.775 46.9139 156.299 45.3671 155.347 44.3756C154.435 43.3444 153.027 42.8289 151.123 42.8289Z" fill="black"/>
<rect x="2.53444" y="2.7566" width="197.085" height="103.345" rx="51.6724" stroke="black" stroke-width="4.7593"/>
</svg>
