<svg width="202" height="109" viewBox="0 0 202 109" fill="none" xmlns="http://www.w3.org/2000/svg">
<path d="M55.4466 41.976C54.0189 41.976 52.7299 42.3131 51.5797 42.9873C50.4692 43.6616 49.5173 44.6332 48.7241 45.9024C47.9309 47.1319 47.336 48.639 46.9394 50.4237C46.5428 52.2085 46.3445 54.2113 46.3445 56.4324C46.3445 59.4466 46.6816 62.0245 47.3558 64.1662C48.0301 66.2682 49.0612 67.8745 50.4494 68.985C51.8375 70.0955 53.6024 70.6508 55.7441 70.6508C57.4495 70.6508 59.1153 70.4525 60.7414 70.0559C62.4071 69.6592 64.1324 69.104 65.9171 68.3901V75.9455C64.172 76.699 62.4071 77.2543 60.6224 77.6112C58.8376 77.9682 56.8943 78.1467 54.7922 78.1467C50.5485 78.1467 47.0782 77.2543 44.3813 75.4696C41.6843 73.6452 39.6815 71.1069 38.3726 67.8547C37.1035 64.5628 36.4689 60.7356 36.4689 56.3729C36.4689 53.1603 36.8854 50.2254 37.7182 47.5682C38.5511 44.8712 39.7806 42.5511 41.4067 40.6077C43.0328 38.6643 45.0158 37.1572 47.3558 36.0863C49.7355 35.0155 52.4522 34.4801 55.5061 34.4801C57.4892 34.4801 59.5714 34.7577 61.7527 35.3129C63.9737 35.8285 65.8973 36.5424 67.5234 37.4546L64.4893 44.7721C63.0219 44.0185 61.5346 43.3641 60.0275 42.8088C58.56 42.2536 57.0331 41.976 55.4466 41.976ZM77.0132 77.5518V35.075H86.6507V70.1153H102.416V77.5518H77.0132ZM128.655 77.5518H109.202V72.4355L114.139 70.0559V42.5709L109.202 40.1912V35.075H128.655V40.1912L123.777 42.5709V70.0559L128.655 72.4355V77.5518ZM151.421 35.075C156.537 35.075 160.305 36.2648 162.724 38.6445C165.183 40.9844 166.413 44.2168 166.413 48.3415C166.413 50.2056 166.155 51.9903 165.639 53.6958C165.124 55.3615 164.271 56.8686 163.081 58.2171C161.891 59.5259 160.305 60.5571 158.322 61.3106C156.379 62.0642 153.979 62.441 151.123 62.441H147.792V77.5518H138.154V35.075H151.421ZM151.123 42.4519H147.792V55.0641H150.231C151.5 55.0641 152.631 54.8459 153.622 54.4096C154.614 53.9734 155.387 53.2793 155.942 52.3275C156.498 51.3756 156.775 50.1461 156.775 48.639C156.775 46.537 156.299 44.9902 155.347 43.9987C154.435 42.9675 153.027 42.4519 151.123 42.4519Z" fill="black"/>
<rect x="2.53444" y="2.37965" width="197.085" height="103.345" rx="51.6724" stroke="black" stroke-width="4.7593"/>
</svg>
