<svg width="202" height="109" viewBox="0 0 202 109" fill="none" xmlns="http://www.w3.org/2000/svg">
<rect x="2.37965" y="2.7566" width="197.085" height="103.345" rx="51.6724" fill="white"/>
<path d="M95.5558 56.6308C95.5558 59.9227 95.1791 62.9171 94.4255 65.614C93.6719 68.2713 92.5218 70.5716 90.975 72.515C89.4282 74.4584 87.4254 75.9457 84.9664 76.9769C82.5471 78.008 79.6717 78.5236 76.3401 78.5236C73.0483 78.5236 70.1927 78.008 67.7734 76.9769C65.3541 75.906 63.3512 74.4187 61.7648 72.515C60.218 70.5716 59.048 68.2515 58.2548 65.5545C57.5012 62.8576 57.1245 59.8632 57.1245 56.5713C57.1245 52.169 57.7987 48.3417 59.1472 45.0895C60.5353 41.8373 62.6572 39.3189 65.5127 37.5341C68.3683 35.7097 71.9973 34.7975 76.3996 34.7975C80.8417 34.7975 84.4706 35.7097 87.2865 37.5341C90.1025 39.3189 92.1847 41.8572 93.5331 45.149C94.8816 48.4012 95.5558 52.2285 95.5558 56.6308ZM67.238 56.6308C67.238 59.6054 67.5354 62.1635 68.1304 64.3052C68.7649 66.4469 69.7564 68.0928 71.1049 69.243C72.4534 70.3931 74.1985 70.9682 76.3401 70.9682C78.5215 70.9682 80.2666 70.3931 81.5754 69.243C82.9238 68.0928 83.8955 66.4469 84.4905 64.3052C85.125 62.1635 85.4423 59.6054 85.4423 56.6308C85.4423 52.1492 84.7284 48.6392 83.3006 46.1009C81.9125 43.5626 79.6122 42.2934 76.3996 42.2934C74.2183 42.2934 72.4534 42.8685 71.1049 44.0187C69.7564 45.1688 68.7649 46.8148 68.1304 48.9565C67.5354 51.0981 67.238 53.6563 67.238 56.6308ZM143.031 77.9287H130.598L114.594 45.8034H114.356C114.396 46.7949 114.436 47.8063 114.475 48.8375C114.515 49.829 114.555 50.8403 114.594 51.8715C114.674 52.8631 114.733 53.8744 114.773 54.9056C114.813 55.8971 114.852 56.9085 114.892 57.9396V77.9287H106.325V35.4519H118.699L134.643 67.2798H134.821C134.821 66.2883 134.802 65.3166 134.762 64.3647C134.722 63.3732 134.663 62.4015 134.584 61.4496C134.544 60.4581 134.504 59.4864 134.465 58.5346C134.425 57.543 134.405 56.5515 134.405 55.56V35.4519H143.031V77.9287Z" fill="black"/>
<rect x="2.37965" y="2.7566" width="197.085" height="103.345" rx="51.6724" stroke="black" stroke-width="4.7593"/>
</svg>
