<?xml version="1.0" encoding="utf-8"?>
<!-- Generator: Adobe Illustrator 24.0.0, SVG Export Plug-In . SVG Version: 6.00 Build 0)  -->
<svg version="1.1" xmlns="http://www.w3.org/2000/svg" xmlns:xlink="http://www.w3.org/1999/xlink" x="0px" y="0px"
	 viewBox="0 0 101.3 101" style="enable-background:new 0 0 101.3 101;" xml:space="preserve">
<style type="text/css">
	.st0{fill:#FFC4EE;}
	.st1{fill:#0F0F0F;}
	.st2{fill:none;stroke:#020002;stroke-width:0.5;stroke-miterlimit:10;}
	.st3{fill:#F48EE1;}
	.st4{opacity:0.27;fill:none;stroke:#FFFFFF;stroke-miterlimit:10;}
	.st5{fill:none;stroke:#020002;stroke-width:0.4912;stroke-miterlimit:10;}
	.st6{fill:#8E8E8E;stroke:#8E8E8E;stroke-width:0.8477;stroke-miterlimit:10;}
	.st7{fill:none;stroke:#8E8E8E;stroke-width:0.8477;stroke-miterlimit:10;}
	.st8{fill:none;stroke:#8E8E8E;stroke-width:0.8566;stroke-miterlimit:10;}
	.st9{fill:none;stroke:#FFC4EE;stroke-width:0.9474;stroke-miterlimit:10;}
	.st10{fill:none;stroke:#FFC4EE;stroke-width:0.6632;stroke-miterlimit:10;}
	.st11{fill:none;stroke:#FFC4EE;stroke-width:0.661;stroke-miterlimit:10;}
	.st12{opacity:0.5;}
	.st13{fill:none;stroke:#1611ED;stroke-width:0.4983;stroke-miterlimit:10;}
	.st14{fill:#1611ED;}
	.st15{fill:#140AE8;}
</style>
<g id="val">
</g>
<g id="pink">
</g>
<g id="black">
</g>
<g id="top_buttos">
</g>
<g id="knobs">
</g>
<g id="labels_1">
	<g>
		<path class="st13" d="M68.4,5.3L67,18.9c-0.2,2.3,2.3,3.8,4.2,2.5l11.4-7.6c2.4-1.6,5.3,1.2,3.8,3.6l-7.2,11.6
			c-1.2,1.9,0.4,4.4,2.6,4.1l13.6-1.9c2.9-0.4,4.2,3.4,1.8,4.9l-11.6,7.3c-1.9,1.2-1.5,4.1,0.6,4.8l13,4.2c2.7,0.9,2.4,4.9-0.5,5.2
			l-13.6,1.6c-2.3,0.3-3.2,3-1.5,4.6l9.9,9.4c2.1,2,0,5.4-2.7,4.5l-13-4.5c-2.1-0.7-4.2,1.4-3.4,3.5l4.9,12.8c1,2.7-2.3,4.9-4.4,2.9
			l-9.7-9.6c-1.6-1.6-4.4-0.6-4.6,1.7l-1.2,13.6c-0.2,2.9-4.2,3.4-5.2,0.7L49.6,86c-0.8-2.1-3.7-2.4-4.8-0.5l-7,11.8
			c-1.5,2.5-5.3,1.2-5-1.7l1.5-13.6c0.2-2.3-2.3-3.8-4.2-2.5l-11.4,7.6c-2.4,1.6-5.3-1.2-3.8-3.6l7.2-11.6c1.2-1.9-0.4-4.4-2.6-4.1
			L6,69.7c-2.9,0.4-4.2-3.4-1.8-4.9l11.6-7.3c1.9-1.2,1.5-4.1-0.6-4.8l-13-4.2c-2.7-0.9-2.4-4.9,0.5-5.2l13.6-1.6
			c2.3-0.3,3.2-3,1.5-4.6l-9.9-9.4c-2.1-2,0-5.4,2.7-4.5l13,4.5c2.1,0.7,4.2-1.4,3.4-3.5L22,11.2c-1-2.7,2.3-4.9,4.4-2.9l9.7,9.6
			c1.6,1.6,4.4,0.6,4.6-1.7l1.2-13.6c0.2-2.9,4.2-3.4,5.2-0.7l4.6,12.9c0.8,2.1,3.7,2.4,4.8,0.5l7-11.8C64.9,1.1,68.7,2.4,68.4,5.3z
			"/>
		<g>
			<path class="st14" d="M47.5,58.8c-5.4-1.9-9.6-6.4-12.2-13l1.2-0.4c2.4,6.3,6.3,10.6,11.4,12.3c5,1.7,10.6,0.8,16.3-2.5l0.6,1.1
				C58.9,59.7,52.9,60.7,47.5,58.8z"/>
		</g>
		<g>
			<g>
				<ellipse transform="matrix(0.3329 -0.943 0.943 0.3329 1.8307 64.2878)" class="st15" cx="46.4" cy="30.9" rx="9.4" ry="4.4"/>
			</g>
			<g>
				<ellipse transform="matrix(0.3329 -0.943 0.943 0.3329 8.0422 86.1884)" class="st15" cx="64.9" cy="37.4" rx="9.4" ry="4.4"/>
			</g>
		</g>
		<g>
			<path class="st14" d="M24.2,59l-0.5-1.3l3.3-4.6l-4.4,1.7l-0.5-1.3l6.5-2.4l0.5,1.3l-3.3,4.6l4.4-1.7l0.5,1.3L24.2,59z"/>
			<path class="st14" d="M30.9,59.5l-4.7,2.9l-0.7-1.2l4.7-2.9L30.9,59.5z M31,57.9c0-0.2,0.2-0.4,0.4-0.5c0.2-0.1,0.4-0.2,0.6-0.1
				c0.2,0.1,0.4,0.2,0.5,0.4c0.1,0.2,0.2,0.4,0.1,0.6c0,0.2-0.2,0.4-0.4,0.5C32,59,31.8,59,31.6,59c-0.2-0.1-0.4-0.2-0.5-0.4
				C31,58.4,30.9,58.1,31,57.9z"/>
			<path class="st14" d="M30.8,61.6c0.5-0.1,0.9-0.1,1.4,0.1c0.4,0.2,0.8,0.4,1.2,0.8c0.5,0.5,0.7,1,0.7,1.6c0,0.6-0.1,1.1-0.5,1.6
				l-1-1.1c0.1-0.2,0.2-0.4,0.2-0.7c0-0.2-0.1-0.4-0.3-0.7c-0.3-0.3-0.6-0.4-0.9-0.4c-0.4,0-0.7,0.2-1.1,0.6
				c-0.4,0.3-0.6,0.7-0.7,1.1c-0.1,0.4,0,0.7,0.3,1c0.4,0.4,0.8,0.5,1.3,0.3l1,1.1c-0.5,0.3-1.1,0.4-1.7,0.3
				c-0.6-0.1-1.1-0.4-1.5-0.9c-0.3-0.4-0.6-0.8-0.7-1.3c-0.1-0.5-0.1-0.9,0.1-1.4c0.2-0.5,0.5-0.9,0.9-1.2
				C29.9,62,30.3,61.7,30.8,61.6z"/>
			<path class="st14" d="M38.2,70.7l-3.3-2.3c-0.2,0.3-0.3,0.7-0.2,1s0.2,0.6,0.5,0.8c0.4,0.3,0.8,0.3,1.3,0.1l1.2,0.9
				c-0.4,0.3-0.9,0.5-1.5,0.5c-0.6,0-1.1-0.2-1.6-0.5c-0.4-0.3-0.7-0.7-1-1.1c-0.2-0.4-0.3-0.9-0.2-1.4c0.1-0.5,0.2-1,0.6-1.4
				c0.3-0.5,0.7-0.8,1.1-1C35.6,66,36,66,36.5,66c0.5,0.1,0.9,0.2,1.4,0.5c0.4,0.3,0.7,0.7,0.9,1.1c0.2,0.4,0.3,0.9,0.2,1.3
				c-0.1,0.5-0.2,0.9-0.5,1.4C38.4,70.5,38.3,70.6,38.2,70.7z M37.6,69.2c0.2-0.3,0.3-0.6,0.2-0.9c-0.1-0.3-0.3-0.6-0.6-0.8
				c-0.3-0.2-0.6-0.3-0.9-0.2c-0.3,0-0.6,0.2-0.9,0.5L37.6,69.2z"/>
			<path class="st14" d="M51,70.3L49.4,77l-1.3-0.3l1-4.4l-2.8,3.9l-1-0.2l-0.8-4.8l-1,4.4l-1.3-0.3l1.6-6.7l1.5,0.4l1,5.5l3.3-4.5
				L51,70.3z"/>
			<path class="st14" d="M53.9,76.6c-0.6-0.3-1-0.6-1.4-1.2c-0.4-0.5-0.6-1.1-0.6-1.8c-0.1-0.7,0.1-1.3,0.3-1.8
				c0.3-0.6,0.7-1,1.2-1.4c0.5-0.3,1.1-0.5,1.7-0.6c0.6-0.1,1.3,0.1,1.8,0.3c0.6,0.3,1,0.6,1.4,1.2c0.4,0.5,0.6,1.1,0.6,1.8
				c0.1,0.7-0.1,1.3-0.3,1.9c-0.3,0.6-0.7,1-1.2,1.4c-0.5,0.3-1.1,0.5-1.7,0.6C55.1,77,54.5,76.9,53.9,76.6z M56.7,75.3
				c0.3-0.2,0.5-0.5,0.7-0.9c0.1-0.4,0.2-0.8,0.2-1.2c0-0.5-0.2-0.9-0.4-1.2c-0.2-0.3-0.5-0.6-0.8-0.7c-0.3-0.2-0.7-0.2-1.1-0.2
				c-0.4,0-0.8,0.2-1.1,0.4c-0.3,0.2-0.5,0.5-0.7,0.9c-0.1,0.4-0.2,0.8-0.2,1.2c0,0.5,0.2,0.9,0.4,1.2c0.2,0.3,0.5,0.6,0.8,0.7
				c0.3,0.2,0.7,0.2,1.1,0.2C56,75.7,56.4,75.5,56.7,75.3z"/>
			<path class="st14" d="M63.5,68.3c0.6,0.1,1.2,0.3,1.6,0.7c0.5,0.4,0.8,0.9,1.1,1.5c0.2,0.6,0.3,1.3,0.2,1.9
				c-0.1,0.6-0.4,1.1-0.8,1.6c-0.4,0.5-1,0.8-1.6,1.1l-2.3,0.8l-2.4-6.5l2.3-0.8C62.3,68.4,62.9,68.3,63.5,68.3z M64.9,72.8
				c0.2-0.5,0.2-1.1,0-1.8c-0.3-0.7-0.6-1.1-1.1-1.4c-0.5-0.2-1.1-0.2-1.8,0l-0.9,0.3l1.6,4.3l0.9-0.3
				C64.2,73.7,64.7,73.3,64.9,72.8z"/>
			<path class="st14" d="M67.5,67l1,1.4l1.9-1.3L71,68L69,69.3l1,1.5l2.2-1.5l0.6,0.9l-3.3,2.2l-3.9-5.7l3.3-2.2l0.6,0.9L67.5,67z"
				/>
		</g>
	</g>
</g>
</svg>
