<svg width="202" height="109" viewBox="0 0 202 109" fill="none" xmlns="http://www.w3.org/2000/svg">
<path d="M95.5558 56.2539C95.5558 59.5457 95.1791 62.5401 94.4255 65.2371C93.6719 67.8943 92.5218 70.1947 90.975 72.1381C89.4282 74.0814 87.4254 75.5687 84.9664 76.5999C82.5471 77.6311 79.6717 78.1467 76.3401 78.1467C73.0483 78.1467 70.1927 77.6311 67.7734 76.5999C65.3541 75.5291 63.3512 74.0418 61.7648 72.1381C60.218 70.1947 59.048 67.8745 58.2548 65.1776C57.5012 62.4806 57.1245 59.4862 57.1245 56.1944C57.1245 51.792 57.7987 47.9648 59.1472 44.7126C60.5353 41.4604 62.6572 38.9419 65.5127 37.1572C68.3683 35.3328 71.9973 34.4206 76.3996 34.4206C80.8417 34.4206 84.4706 35.3328 87.2865 37.1572C90.1025 38.9419 92.1847 41.4802 93.5331 44.7721C94.8816 48.0243 95.5558 51.8515 95.5558 56.2539ZM67.238 56.2539C67.238 59.2284 67.5354 61.7866 68.1304 63.9283C68.7649 66.0699 69.7564 67.7159 71.1049 68.866C72.4534 70.0162 74.1985 70.5913 76.3401 70.5913C78.5215 70.5913 80.2666 70.0162 81.5754 68.866C82.9238 67.7159 83.8955 66.0699 84.4905 63.9283C85.125 61.7866 85.4423 59.2284 85.4423 56.2539C85.4423 51.7722 84.7284 48.2622 83.3006 45.7239C81.9125 43.1856 79.6122 41.9165 76.3996 41.9165C74.2183 41.9165 72.4534 42.4916 71.1049 43.6417C69.7564 44.7919 68.7649 46.4378 68.1304 48.5795C67.5354 50.7212 67.238 53.2793 67.238 56.2539ZM143.031 77.5518H130.598L114.594 45.4265H114.356C114.396 46.418 114.436 47.4293 114.475 48.4605C114.515 49.452 114.555 50.4634 114.594 51.4946C114.674 52.4861 114.733 53.4974 114.773 54.5286C114.813 55.5202 114.852 56.5315 114.892 57.5627V77.5518H106.325V35.075H118.699L134.643 66.9028H134.821C134.821 65.9113 134.802 64.9396 134.762 63.9877C134.722 62.9962 134.663 62.0245 134.584 61.0727C134.544 60.0812 134.504 59.1095 134.465 58.1576C134.425 57.1661 134.405 56.1746 134.405 55.183V35.075H143.031V77.5518Z" fill="black"/>
<rect x="2.37965" y="2.37965" width="197.085" height="103.345" rx="51.6724" stroke="black" stroke-width="4.7593"/>
</svg>
