<svg width="2905" height="1776" viewBox="0 0 2905 1776" fill="none" xmlns="http://www.w3.org/2000/svg">
<g opacity="0.13">
<mask id="mask0_2675_80" style="mask-type:alpha" maskUnits="userSpaceOnUse" x="0" y="0" width="2905" height="1776">
<rect width="2905" height="1776" fill="#D9D9D9"/>
</mask>
<g mask="url(#mask0_2675_80)">
<path d="M2148.32 1635.63C2128.26 1652.53 2098.64 1660.59 2070.63 1643.92L1845.14 1504.49C1829.25 1494.94 1811.44 1500.18 1800.56 1508.01C1787.47 1517.08 1780.12 1532.18 1781.78 1547.44L1806.51 1829.1C1809.36 1862.51 1790.79 1893.1 1759.72 1905.85C1733.93 1916.72 1699.12 1913.05 1679.95 1880.58L1544.52 1645.15C1535.97 1631.3 1521.18 1624.73 1505.08 1627.62C1489.01 1630.91 1476.56 1642.25 1470.87 1658.21L1374.1 1933.53C1360.97 1971 1327.82 1986.18 1300.67 1984.54C1268.79 1982.66 1245.93 1959.34 1243.93 1926.56L1225.11 1645.29C1224.17 1625.89 1210.87 1615.01 1199.14 1611.41C1184.14 1606.48 1168.2 1610.94 1157.03 1623.22L959.329 1836.8C932.003 1865.99 897.538 1865.44 875.312 1851.59C853.085 1837.74 836.511 1807.54 850.876 1770.61L954.144 1497.56C959.881 1481.99 956.991 1466.19 946.027 1455.23C937.655 1446.55 922.058 1439.74 904.082 1447.02L642.809 1557.63C606.516 1572.65 576.513 1555.6 562.999 1531.97C547.53 1504.74 552.8 1470.47 576.768 1446.37L779.522 1236.16C791.421 1223.33 795.841 1206.43 791.081 1191.4C786.322 1176.38 773.573 1166.99 757.084 1166.37L485.059 1152.82C448.086 1150.78 428.962 1122.3 426.795 1095.15C424.585 1067.61 438.057 1033.27 473.584 1018.4L738.894 912.558C756.488 905.361 765.2 888.383 766.858 874.848C768.983 858.418 762.693 843.709 749.731 835.962L515.486 698.72C488.288 682.289 478.131 649.975 489.478 617.663C500.867 585.742 529.935 565.402 562.191 567.203L833.323 586.932C852.234 588.263 866.259 576.997 873.568 565.105C882.917 550.397 883.385 533.106 874.843 519.257L734.389 288.055C715.011 257.228 725.295 222.334 744.929 201.523C764.52 180.321 798.645 166.944 830.051 186.114L1056.9 327.268C1072.8 336.814 1090.22 331.651 1101.48 323.749C1114.1 313.97 1121.54 299.653 1120.26 284.318L1095.53 2.65681C1092.51 -28.7171 1110.79 -58.447 1140.71 -70.9638C1166.88 -81.916 1202.07 -78.3152 1221.24 -45.8452L1358.46 188.018C1367 201.866 1381.79 208.439 1397.9 205.545C1413.58 202.338 1426.41 190.916 1432.11 174.955L1528.88 -100.363C1542.01 -137.839 1575.15 -153.015 1602.31 -151.371C1634.18 -149.492 1657.05 -126.175 1659.04 -93.3931L1677.87 187.877C1678.81 207.28 1692.11 218.156 1703.84 221.755C1718.84 226.685 1734.39 222.305 1745.95 209.943L1945.43 -5.20391C1972.42 -33.9163 2007.22 -33.8363 2029.45 -19.987C2051.68 -6.13761 2068.25 24.0634 2053.89 60.9914L1950.62 334.04C1944.88 349.609 1947.77 365.414 1958.74 376.368C1967.11 385.053 1982.7 391.86 2000.68 384.585L2261.95 273.968C2298.25 258.948 2328.25 276.005 2341.76 299.634C2357.23 326.862 2351.96 361.13 2327.99 385.227L2125.24 595.445C2113.34 608.275 2108.92 625.175 2113.68 640.197C2118.44 655.219 2131.19 664.608 2147.68 665.235L2419.7 678.784C2456.68 680.82 2475.42 709.378 2477.97 736.448C2480.18 763.989 2466.32 798.413 2430.8 813.277L2165.87 919.043C2147.93 926.709 2139.56 943.217 2137.9 956.753C2135.82 973.574 2142.07 987.892 2155.03 995.638L2385.54 1130.85C2412.73 1147.28 2422.89 1179.59 2411.54 1211.9C2400.16 1243.82 2370.7 1264.24 2338.83 1262.36L2067.7 1242.63C2049.17 1241.23 2034.76 1252.57 2027.45 1264.46C2018.1 1279.17 2017.64 1296.46 2026.18 1310.31L2166.63 1541.51C2186.01 1572.34 2175.73 1607.23 2156.09 1628.04C2153.63 1630.55 2151.16 1633.05 2148.66 1635.16L2148.32 1635.63Z" stroke="#FFC4EE" stroke-width="47.1999" stroke-miterlimit="10"/>
<path d="M1679.93 1229.68C1647.11 1256.83 1611.33 1278.28 1573.26 1293.09C1459.83 1337.38 1334.98 1323.64 1212.17 1253.88L1226.63 1229.65C1342.81 1295.63 1460.21 1308.91 1565.82 1267.79C1669.18 1227.52 1753.39 1136.71 1808.96 1004.77L1833.28 1013.64C1794.67 1105.07 1742.35 1177.98 1679.93 1229.68Z" fill="#FFC4EE"/>
<path d="M1274.39 1029.89C1321.44 1011.31 1335.71 913.802 1306.26 812.1C1276.81 710.399 1214.79 643.016 1167.74 661.597C1120.68 680.178 1106.41 777.687 1135.86 879.389C1165.31 981.091 1227.33 1048.47 1274.39 1029.89Z" fill="#FFC4EE"/>
<path d="M1649.81 886.952C1696.87 868.371 1711.14 770.862 1681.69 669.16C1652.24 567.458 1590.22 500.075 1543.17 518.657C1496.11 537.238 1481.84 634.746 1511.29 736.448C1540.74 838.15 1602.76 905.533 1649.81 886.952Z" fill="#FFC4EE"/>
</g>
</g>
</svg>
