<svg width="160" height="160" viewBox="0 0 160 160" fill="none" xmlns="http://www.w3.org/2000/svg">
<path d="M128.908 127.398C127.523 128.479 125.467 128.975 123.508 127.861L107.735 118.553C106.624 117.915 105.388 118.239 104.636 118.737C103.731 119.316 103.229 120.292 103.353 121.288L105.246 139.663C105.464 141.842 104.191 143.816 102.037 144.616C100.249 145.299 97.8253 145.025 96.4721 142.89L86.9057 127.417C86.303 126.506 85.2701 126.063 84.1513 126.236C83.0357 126.434 82.1763 127.161 81.7898 128.195L75.2253 146.035C74.3346 148.464 72.0377 149.42 70.1474 149.285C67.9287 149.131 66.3238 147.589 66.1649 145.452L64.6837 127.108C64.6068 125.843 63.6747 125.121 62.8565 124.875C61.8098 124.539 60.7038 124.814 59.9336 125.603L46.3095 139.321C44.4262 141.195 42.028 141.125 40.4732 140.2C38.9185 139.276 37.747 137.292 38.7238 134.9L45.742 117.214C46.1317 116.205 45.921 115.173 45.1515 114.448C44.5637 113.874 43.4745 113.415 42.2283 113.871L24.1182 120.817C21.6024 121.76 19.5046 120.619 18.55 119.066C17.4572 117.276 17.8029 115.049 19.4558 113.503L33.4338 100.009C34.2539 99.1853 34.5511 98.0887 34.2108 97.1053C33.8705 96.1219 32.9777 95.4974 31.8302 95.4402L12.8964 94.2866C10.3229 94.1171 8.97505 92.2426 8.80771 90.4717C8.63718 88.6752 9.5535 86.451 12.0162 85.518L30.41 78.8865C31.6297 78.4351 32.2254 77.3377 32.3325 76.4576C32.4703 75.3892 32.0238 74.4247 31.1173 73.9071L14.7366 64.7325C12.8343 63.6349 12.108 61.5195 12.8777 59.4257C13.6506 57.3574 15.6606 56.0612 17.9058 56.2106L36.7812 57.766C38.0977 57.8716 39.0665 57.1516 39.5678 56.3841C40.2093 55.4351 40.2313 54.3091 39.6286 53.3984L29.7159 38.1956C28.3489 36.1679 29.0432 33.9048 30.3964 32.5686C31.7465 31.2068 34.1126 30.3692 36.3092 31.6495L52.1778 41.0716C53.2894 41.7093 54.4985 41.3903 55.2772 40.8867C56.1494 40.2622 56.6581 39.3368 56.56 38.3365L54.6676 19.9616C54.4385 17.9146 55.6918 15.9959 57.7656 15.2102C59.5802 14.5228 62.0305 14.7924 63.3838 16.9269L73.0733 32.2997C73.676 33.2105 74.709 33.6534 75.8278 33.4809C76.9168 33.2876 77.8028 32.5562 78.1892 31.5221L84.7537 13.6815C85.6445 11.253 87.9414 10.2972 89.8317 10.4314C92.0503 10.5856 93.6552 12.1274 93.8141 14.2652L95.2954 32.6087C95.3723 33.8737 96.3043 34.5955 97.1225 34.8417C98.1692 35.1778 99.2487 34.9079 100.045 34.1141L113.793 20.2959C115.653 18.4522 118.074 18.4921 119.629 19.4165C121.184 20.3409 122.355 22.325 121.378 24.7166L114.36 42.4029C113.971 43.4115 114.181 44.444 114.951 45.1686C115.539 45.7427 116.628 46.2018 117.874 45.7457L135.984 38.7992C138.5 37.8568 140.598 38.998 141.552 40.5509C142.645 42.3402 142.299 44.5675 140.646 46.1135L126.668 59.6073C125.848 60.4314 125.551 61.5279 125.892 62.5114C126.232 63.4948 127.125 64.1192 128.272 64.1765L147.206 65.3301C149.779 65.4996 151.101 67.3788 151.295 69.145C151.465 70.9414 150.522 73.1704 148.06 74.1033L129.692 80.7302C128.449 81.2118 127.877 82.2789 127.77 83.1591C127.635 84.2529 128.078 85.192 128.985 85.7096L145.104 94.7479C147.007 95.8455 147.733 97.9609 146.963 100.055C146.19 102.123 144.154 103.424 141.935 103.27L123.06 101.714C121.77 101.604 120.774 102.329 120.273 103.096C119.631 104.045 119.61 105.171 120.212 106.082L130.125 121.285C131.492 123.312 130.798 125.576 129.444 126.912C129.274 127.072 129.104 127.233 128.931 127.368L128.908 127.398Z" stroke="black" stroke-width="3" stroke-miterlimit="10"/>
<path d="M95.9949 100.254C93.7174 102.015 91.2293 103.396 88.5775 104.337C80.6751 107.149 71.9386 106.116 63.3094 101.385L64.3056 99.7987C72.4683 104.274 80.6842 105.268 88.0415 102.657C95.2426 100.1 101.073 94.1854 104.877 85.5248L106.582 86.1354C103.939 92.1369 100.327 96.9013 95.9949 100.254Z" fill="black" stroke="#020101" stroke-width="0.75" stroke-miterlimit="10"/>
<path d="M67.6664 87.2387C70.9188 86.0857 71.8496 79.8044 69.7456 73.2089C67.6416 66.6134 63.2994 62.2013 60.0471 63.3543C56.7947 64.5072 55.8639 70.7886 57.9679 77.3841C60.0719 83.9796 64.4141 88.3916 67.6664 87.2387Z" fill="black"/>
<path d="M93.9516 78.0307C97.2039 76.8777 98.1348 70.5964 96.0308 64.0009C93.9267 57.4054 89.5846 52.9933 86.3322 54.1463C83.0799 55.2992 82.149 61.5806 84.253 68.1761C86.3571 74.7716 90.6993 79.1836 93.9516 78.0307Z" fill="black"/>
</svg>
