<svg width="160" height="161" viewBox="0 0 160 161" fill="none" xmlns="http://www.w3.org/2000/svg">
<path d="M128.908 127.732C127.523 128.813 125.467 129.308 123.508 128.195L107.735 118.886C106.624 118.248 105.388 118.572 104.636 119.071C103.731 119.649 103.229 120.626 103.353 121.621L105.246 139.996C105.464 142.175 104.191 144.15 102.037 144.95C100.249 145.632 97.8253 145.358 96.4721 143.224L86.9057 127.751C86.303 126.84 85.2701 126.397 84.1513 126.569C83.0357 126.767 82.1763 127.494 81.7898 128.528L75.2253 146.369C74.3346 148.797 72.0377 149.753 70.1474 149.619C67.9287 149.465 66.3238 147.923 66.1649 145.785L64.6837 127.442C64.6068 126.177 63.6747 125.455 62.8565 125.209C61.8098 124.872 60.7038 125.147 59.9336 125.936L46.3095 139.654C44.4262 141.528 42.028 141.458 40.4732 140.534C38.9185 139.609 37.747 137.625 38.7238 135.234L45.742 117.547C46.1317 116.539 45.921 115.506 45.1515 114.782C44.5637 114.207 43.4745 113.748 42.2283 114.204L24.1182 121.151C21.6024 122.093 19.5046 120.952 18.55 119.399C17.4572 117.61 17.8029 115.383 19.4558 113.837L33.4338 100.343C34.2539 99.5188 34.5511 98.4222 34.2108 97.4388C33.8705 96.4553 32.9777 95.8309 31.8302 95.7737L12.8964 94.6201C10.3229 94.4506 8.97505 92.5761 8.80771 90.8052C8.63718 89.0087 9.5535 86.7845 12.0162 85.8515L30.41 79.22C31.6297 78.7686 32.2254 77.6712 32.3325 76.791C32.4703 75.7227 32.0238 74.7582 31.1173 74.2406L14.7366 65.066C12.8343 63.9684 12.108 61.853 12.8777 59.7592C13.6506 57.6909 15.6606 56.3946 17.9058 56.5441L36.7812 58.0995C38.0977 58.2051 39.0665 57.4851 39.5678 56.7176C40.2093 55.7686 40.2313 54.6426 39.6286 53.7319L29.7159 38.5291C28.3489 36.5014 29.0432 34.2383 30.3964 32.9021C31.7465 31.5403 34.1126 30.7027 36.3092 31.9829L52.1778 41.4051C53.2894 42.0428 54.4985 41.7238 55.2772 41.2202C56.1494 40.5957 56.6581 39.6703 56.56 38.67L54.6676 20.2951C54.4385 18.2481 55.6918 16.3294 57.7656 15.5437C59.5802 14.8562 62.0305 15.1259 63.3838 17.2604L73.0733 32.6332C73.676 33.544 74.709 33.9869 75.8278 33.8144C76.9168 33.6211 77.8028 32.8897 78.1892 31.8556L84.7537 14.015C85.6445 11.5865 87.9414 10.6307 89.8317 10.7649C92.0503 10.9191 93.6552 12.4609 93.8141 14.5987L95.2954 32.9422C95.3723 34.2072 96.3043 34.929 97.1225 35.1752C98.1692 35.5113 99.2487 35.2414 100.045 34.4476L113.793 20.6294C115.653 18.7857 118.074 18.8256 119.629 19.75C121.184 20.6744 122.355 22.6585 121.378 25.0501L114.36 42.7363C113.971 43.745 114.181 44.7775 114.951 45.5021C115.539 46.0762 116.628 46.5353 117.874 46.0792L135.984 39.1327C138.5 38.1903 140.598 39.3315 141.552 40.8843C142.645 42.6737 142.299 44.901 140.646 46.447L126.668 59.9408C125.848 60.7648 125.551 61.8614 125.892 62.8449C126.232 63.8283 127.125 64.4527 128.272 64.51L147.206 65.6636C149.779 65.833 151.101 67.7123 151.295 69.4785C151.465 71.2749 150.522 73.5039 148.06 74.4368L129.692 81.0637C128.449 81.5453 127.877 82.6124 127.77 83.4926C127.635 84.5864 128.078 85.5255 128.985 86.0431L145.104 95.0814C147.007 96.179 147.733 98.2944 146.963 100.388C146.19 102.456 144.154 103.757 141.935 103.603L123.06 102.048C121.77 101.938 120.774 102.662 120.273 103.43C119.632 104.379 119.61 105.505 120.212 106.416L130.125 121.618C131.492 123.646 130.798 125.909 129.444 127.245C129.274 127.406 129.104 127.567 128.931 127.702L128.908 127.732Z" fill="#F6C7EB" stroke="black" stroke-width="3" stroke-miterlimit="10"/>
<path d="M95.9949 100.587C93.7174 102.349 91.2293 103.73 88.5775 104.67C80.6751 107.482 71.9386 106.449 63.3094 101.718L64.3056 100.132C72.4683 104.607 80.6842 105.602 88.0415 102.991C95.2426 100.434 101.073 94.5188 104.877 85.8583L106.582 86.4689C103.939 92.4704 100.327 97.2348 95.9949 100.587Z" fill="black" stroke="#020101" stroke-width="0.75" stroke-miterlimit="10"/>
<path d="M67.6664 87.5722C70.9188 86.4192 71.8496 80.1379 69.7456 73.5424C67.6416 66.9469 63.2994 62.5348 60.0471 63.6878C56.7947 64.8407 55.8639 71.1221 57.9679 77.7176C60.0719 84.3131 64.4141 88.7251 67.6664 87.5722Z" fill="black"/>
<path d="M93.9516 78.3642C97.2039 77.2112 98.1348 70.9299 96.0308 64.3344C93.9267 57.7389 89.5846 53.3268 86.3322 54.4798C83.0799 55.6327 82.149 61.9141 84.253 68.5096C86.3571 75.1051 90.6993 79.5171 93.9516 78.3642Z" fill="black"/>
</svg>
