<svg width="160" height="161" viewBox="0 0 160 161" fill="none" xmlns="http://www.w3.org/2000/svg">
<path opacity="0.5" d="M129.158 128.009C127.773 129.09 125.717 129.586 123.759 128.472L107.986 119.163C106.874 118.526 105.639 118.849 104.886 119.348C103.981 119.926 103.479 120.903 103.604 121.898L105.496 140.273C105.715 142.453 104.441 144.427 102.288 145.227C100.5 145.91 98.0758 145.635 96.7225 143.501L87.1562 128.028C86.5535 127.117 85.5206 126.674 84.4018 126.847C83.2861 127.045 82.4268 127.771 82.0403 128.806L75.4758 146.646C74.5851 149.075 72.2881 150.03 70.3978 149.896C68.1792 149.742 66.5743 148.2 66.4154 146.062L64.9341 127.719C64.8573 126.454 63.9252 125.732 63.107 125.486C62.0603 125.15 60.9542 125.424 60.1841 126.214L46.56 139.932C44.6767 141.806 42.2785 141.735 40.7237 140.811C39.169 139.887 37.9975 137.902 38.9743 135.511L45.9925 117.825C46.3822 116.816 46.1715 115.783 45.402 115.059C44.8142 114.485 43.725 114.026 42.4788 114.482L24.3687 121.428C21.8529 122.371 19.7551 121.23 18.8005 119.677C17.7077 117.887 18.0534 115.66 19.7063 114.114L33.6843 100.62C34.5044 99.7962 34.8015 98.6996 34.4612 97.7161C34.1209 96.7327 33.2282 96.1083 32.0807 96.051L13.1469 94.8974C10.5734 94.728 9.22554 92.8535 9.0582 91.0825C8.88767 89.2861 9.80399 87.0618 12.2667 86.1289L30.6605 79.4973C31.8802 79.046 32.4759 77.9486 32.583 77.0684C32.7208 76.0001 32.2743 75.0355 31.3678 74.5179L14.9871 65.3433C13.0848 64.2457 12.3585 62.1304 13.1282 60.0365C13.9011 57.9682 15.9111 56.672 18.1563 56.8215L37.0317 58.3769C38.3482 58.4824 39.317 57.7624 39.8183 56.9949C40.4598 56.046 40.4818 54.92 39.8791 54.0092L29.9664 38.8065C28.5994 36.7788 29.2937 34.5157 30.6469 33.1794C31.997 31.8176 34.3631 30.9801 36.5597 32.2603L52.4283 41.6824C53.5399 42.3202 54.749 42.0011 55.5277 41.4976C56.3999 40.873 56.9086 39.9477 56.8105 38.9473L54.9181 20.5724C54.689 18.5254 55.9422 16.6067 58.0161 15.8211C59.8307 15.1336 62.281 15.4032 63.6342 17.5377L73.3238 32.9106C73.9265 33.8213 74.9595 34.2643 76.0783 34.0918C77.1673 33.8984 78.0533 33.1671 78.4397 32.1329L85.0042 14.2923C85.8949 11.8638 88.1919 10.9081 90.0822 11.0423C92.3008 11.1964 93.9057 12.7383 94.0646 14.876L95.5459 33.2195C95.6227 34.4846 96.5548 35.2064 97.373 35.4526C98.4197 35.7887 99.4992 35.5188 100.296 34.7249L114.043 20.9068C115.903 19.063 118.325 19.1029 119.88 20.0273C121.434 20.9518 122.606 22.9359 121.629 25.3274L114.611 43.0137C114.221 44.0223 114.432 45.0549 115.201 45.7794C115.789 46.3536 116.878 46.8126 118.124 46.3565L136.234 39.4101C138.75 38.4676 140.848 39.6088 141.803 41.1617C142.896 42.951 142.55 45.1783 140.897 46.7243L126.919 60.2181C126.099 61.0422 125.802 62.1388 126.142 63.1222C126.482 64.1056 127.375 64.7301 128.523 64.7873L147.456 65.9409C150.03 66.1104 151.351 67.9896 151.545 69.7558C151.716 71.5523 150.773 73.7812 148.31 74.7142L129.943 81.341C128.7 81.8226 128.127 82.8898 128.02 83.77C127.886 84.8638 128.329 85.8028 129.235 86.3204L145.355 95.3588C147.257 96.4564 147.983 98.5717 147.214 100.666C146.441 102.734 144.404 104.035 142.186 103.881L123.31 102.325C122.02 102.215 121.025 102.94 120.523 103.707C119.882 104.656 119.86 105.782 120.463 106.693L130.375 121.896C131.742 123.923 131.048 126.186 129.695 127.523C129.525 127.683 129.355 127.844 129.182 127.979L129.158 128.009Z" stroke="black" stroke-width="4" stroke-miterlimit="10"/>
<path d="M96.2454 100.865C93.9679 102.626 91.4798 104.008 88.828 104.948C80.9256 107.76 72.1891 106.727 63.5599 101.996L64.5561 100.41C72.7188 104.885 80.9346 105.879 88.292 103.269C95.4931 100.712 101.324 94.7967 105.127 86.1361L106.833 86.7467C104.19 92.7482 100.577 97.5126 96.2454 100.865Z" fill="black" stroke="#020101" stroke-width="0.75" stroke-miterlimit="10"/>
<path d="M67.9164 87.8495C71.1688 86.6966 72.0996 80.4152 69.9956 73.8197C67.8916 67.2242 63.5494 62.8122 60.2971 63.9651C57.0447 65.1181 56.1139 71.3994 58.2179 77.9949C60.3219 84.5904 64.6641 89.0025 67.9164 87.8495Z" fill="black"/>
<path d="M94.2016 78.6415C97.4539 77.4886 98.3848 71.2072 96.2808 64.6117C94.1767 58.0162 89.8346 53.6042 86.5822 54.7571C83.3299 55.9101 82.399 62.1914 84.503 68.7869C86.6071 75.3824 90.9493 79.7945 94.2016 78.6415Z" fill="black"/>
</svg>
