<?xml version="1.0" encoding="utf-8"?>
<!-- Generator: Adobe Illustrator 24.0.0, SVG Export Plug-In . SVG Version: 6.00 Build 0)  -->
<svg version="1.1" id="Layer_1" xmlns="http://www.w3.org/2000/svg" xmlns:xlink="http://www.w3.org/1999/xlink" x="0px" y="0px"
	 viewBox="0 0 218 40" style="enable-background:new 0 0 218 40;" xml:space="preserve">
<style type="text/css">
	.st0{fill:#140AE8;}
	.st1{fill:#FFFFFF;}
	.st2{fill:#0F0F0F;}
</style>
<g>
	<path class="st2" d="M15.7,31.7l6-19.6h9l-9.8,27.5H10.4L0.7,12h9L15.7,31.7z"/>
	<path class="st2" d="M30.5,18.3c1.1-2.1,2.5-3.8,4.4-4.9c1.8-1.2,3.9-1.7,6.2-1.7c1.9,0,3.6,0.4,5.1,1.2c1.5,0.8,2.6,1.8,3.4,3.1
		V12H58v27.5h-8.4v-3.9c-0.8,1.3-2,2.3-3.4,3.1c-1.5,0.8-3.2,1.2-5.1,1.2c-2.2,0-4.3-0.6-6.1-1.8c-1.8-1.2-3.3-2.8-4.4-5
		c-1.1-2.2-1.6-4.6-1.6-7.5C28.9,22.9,29.5,20.4,30.5,18.3z M47.8,20.8c-1.2-1.2-2.6-1.8-4.3-1.8c-1.7,0-3.1,0.6-4.3,1.8
		c-1.2,1.2-1.8,2.9-1.8,5s0.6,3.8,1.8,5c1.2,1.2,2.6,1.8,4.3,1.8c1.7,0,3.1-0.6,4.3-1.8c1.2-1.2,1.8-2.9,1.8-5S49,22,47.8,20.8z"/>
	<path class="st2" d="M69.2,3v36.5h-8.4V3H69.2z"/>
	<path class="st2" d="M98.4,27.8H79.4c0.1,1.7,0.7,3,1.7,3.9c1,0.9,2.2,1.4,3.6,1.4c2.1,0,3.6-0.9,4.4-2.7h9
		c-0.5,1.8-1.3,3.4-2.5,4.9c-1.2,1.4-2.7,2.6-4.5,3.4c-1.8,0.8-3.8,1.2-6.1,1.2c-2.7,0-5.1-0.6-7.2-1.7c-2.1-1.2-3.7-2.8-4.9-4.9
		c-1.2-2.1-1.8-4.6-1.8-7.5c0-2.9,0.6-5.4,1.8-7.5c1.2-2.1,2.8-3.8,4.9-4.9s4.5-1.7,7.3-1.7c2.7,0,5,0.6,7.1,1.7
		c2.1,1.1,3.7,2.7,4.9,4.8c1.2,2.1,1.8,4.5,1.8,7.3C98.6,26.1,98.5,27,98.4,27.8z M90,23.1c0-1.4-0.5-2.6-1.5-3.5
		c-1-0.9-2.2-1.3-3.7-1.3c-1.4,0-2.6,0.4-3.6,1.2c-1,0.8-1.6,2-1.8,3.5H90z"/>
	<path class="st2" d="M125.2,14.9c1.9,2.1,2.9,5,2.9,8.6v16.1h-8.4V24.6c0-1.8-0.5-3.3-1.4-4.3c-1-1-2.2-1.5-3.8-1.5
		c-1.6,0-2.9,0.5-3.8,1.5c-1,1-1.4,2.4-1.4,4.3v14.9h-8.4V12h8.4v3.7c0.9-1.2,2-2.2,3.5-2.9c1.4-0.7,3.1-1.1,4.9-1.1
		C120.8,11.7,123.3,12.8,125.2,14.9z"/>
	<path class="st2" d="M146.5,32.4v7.2h-4.3c-3.1,0-5.4-0.7-7.2-2.2c-1.7-1.5-2.6-3.9-2.6-7.3V19h-3.4v-7h3.4V5.3h8.4V12h5.5v7H141
		v11c0,0.8,0.2,1.4,0.6,1.8c0.4,0.4,1.1,0.5,2,0.5H146.5z"/>
	<path class="st2" d="M158,12.1v27.5h-8.4V12.1H158z"/>
	<path class="st2" d="M185.3,14.9c1.9,2.1,2.9,5,2.9,8.6v16.1h-8.4V24.6c0-1.8-0.5-3.3-1.4-4.3c-1-1-2.2-1.5-3.8-1.5
		c-1.6,0-2.9,0.5-3.8,1.5c-1,1-1.4,2.4-1.4,4.3v14.9h-8.4V12h8.4v3.7c0.9-1.2,2-2.2,3.5-2.9c1.4-0.7,3.1-1.1,4.9-1.1
		C180.8,11.7,183.4,12.8,185.3,14.9z"/>
	<path class="st2" d="M217.6,27.8h-19.1c0.1,1.7,0.7,3,1.7,3.9c1,0.9,2.2,1.4,3.6,1.4c2.1,0,3.6-0.9,4.4-2.7h9
		c-0.5,1.8-1.3,3.4-2.5,4.9c-1.2,1.4-2.7,2.6-4.5,3.4c-1.8,0.8-3.8,1.2-6.1,1.2c-2.7,0-5.1-0.6-7.2-1.7c-2.1-1.2-3.7-2.8-4.9-4.9
		c-1.2-2.1-1.8-4.6-1.8-7.5c0-2.9,0.6-5.4,1.8-7.5c1.2-2.1,2.8-3.8,4.9-4.9c2.1-1.2,4.5-1.7,7.3-1.7c2.7,0,5,0.6,7.1,1.7
		c2.1,1.1,3.7,2.7,4.9,4.8c1.2,2.1,1.8,4.5,1.8,7.3C217.7,26.1,217.7,27,217.6,27.8z M209.1,23.1c0-1.4-0.5-2.6-1.5-3.5
		c-1-0.9-2.2-1.3-3.7-1.3c-1.4,0-2.6,0.4-3.6,1.2c-1,0.8-1.6,2-1.8,3.5H209.1z"/>
</g>
<circle class="st2" cx="153.7" cy="4.9" r="4.8"/>
</svg>
