<svg xmlns="http://www.w3.org/2000/svg" viewBox="0 0 66 66"><defs><style>.cls-1{opacity:0.5;}.cls-2{fill:none;stroke:#1611ed;stroke-miterlimit:10;stroke-width:0.32px;}.cls-3{fill:#1611ed;}.cls-4{fill:#140ae8;}</style></defs><title>nice-v copy</title><g id="labels_1" data-name="labels 1"><g class="cls-1"><path class="cls-2" d="M34.33,1.65l2,8.63a1.77,1.77,0,0,0,3.12.67l5.49-7A1.77,1.77,0,0,1,48,5.38L46,14a1.76,1.76,0,0,0,2.52,1.93l8-4a1.74,1.74,0,0,1,2.17,2.63l-5.63,6.91a1.72,1.72,0,0,0,1.41,2.81l9-.17a1.73,1.73,0,0,1,.79,3.3l-8.13,3.82a1.71,1.71,0,0,0,0,3.13l8.19,3.69a1.73,1.73,0,0,1-.74,3.31l-9,0a1.72,1.72,0,0,0-1.36,2.83L59.05,51a1.75,1.75,0,0,1-2.13,2.67L48.81,49.8a1.75,1.75,0,0,0-2.48,2l2.17,8.58a1.77,1.77,0,0,1-3.1,1.5l-5.6-6.93a1.77,1.77,0,0,0-3.11.72l-1.84,8.66a1.77,1.77,0,0,1-3.44,0l-2-8.63A1.77,1.77,0,0,0,26.3,55l-5.49,7a1.76,1.76,0,0,1-3.12-1.44l2-8.62a1.75,1.75,0,0,0-2.51-1.93l-8,4A1.74,1.74,0,0,1,7,51.41l5.64-6.9a1.73,1.73,0,0,0-1.41-2.81l-9,.16a1.73,1.73,0,0,1-.79-3.29l8.13-3.82a1.72,1.72,0,0,0,0-3.14L1.32,27.93a1.73,1.73,0,0,1,.74-3.31l9,0a1.73,1.73,0,0,0,1.37-2.83L6.68,15a1.74,1.74,0,0,1,2.13-2.66l8.11,3.86a1.75,1.75,0,0,0,2.48-2L17.23,5.63a1.77,1.77,0,0,1,3.1-1.5l5.6,6.93A1.77,1.77,0,0,0,29,10.34l1.84-8.66A1.77,1.77,0,0,1,34.33,1.65Z"/><path class="cls-3" d="M31.9,40.29c-3.62-1-6.53-3.79-8.42-8l.76-.33c1.78,4,4.51,6.6,7.89,7.56s7,.18,10.6-2.18l.46.68C39.36,40.51,35.46,41.29,31.9,40.29Z"/><ellipse class="cls-4" cx="29.91" cy="22.19" rx="6.11" ry="2.86" transform="translate(0.14 44.57) rotate(-73.51)"/><ellipse class="cls-4" cx="42.37" cy="25.71" rx="6.11" ry="2.86" transform="translate(5.69 59.04) rotate(-73.51)"/><path class="cls-3" d="M15.77,39.46l-.37-.82,2-3.09-2.84,1.24L14.19,36l4.15-1.82.37.82-2,3.09,2.85-1.25.37.82Z"/><path class="cls-3" d="M20.32,39.75l-2.95,2-.52-.73,2.94-2Zm0-1a.49.49,0,0,1,.22-.34.48.48,0,0,1,.4-.09.58.58,0,0,1,.36.23.52.52,0,0,1,.1.41.48.48,0,0,1-.21.34.51.51,0,0,1-.41.09.55.55,0,0,1-.35-.23A.57.57,0,0,1,20.3,38.74Z"/><path class="cls-3" d="M20.36,40.92a1.62,1.62,0,0,1,.9,0,1.87,1.87,0,0,1,.82.48,1.8,1.8,0,0,1,.55,1,1.58,1.58,0,0,1-.25,1.06l-.69-.68a.73.73,0,0,0,.07-.43.74.74,0,0,0-.23-.41.8.8,0,0,0-.64-.24,1.31,1.31,0,0,0-.73.4,1.26,1.26,0,0,0-.4.72.73.73,0,0,0,.24.62.7.7,0,0,0,.86.16l.69.68a1.64,1.64,0,0,1-1.07.23,1.79,1.79,0,0,1-1-.52,1.83,1.83,0,0,1-.49-.8,1.5,1.5,0,0,1,0-.89,2,2,0,0,1,.52-.84A2.05,2.05,0,0,1,20.36,40.92Z"/><path class="cls-3" d="M25.31,46.47l-2.24-1.36a.85.85,0,0,0-.09.65.82.82,0,0,0,.39.49.74.74,0,0,0,.84,0l.83.51a1.6,1.6,0,0,1-1,.4,1.75,1.75,0,0,1-1.1-.28,2,2,0,0,1-.67-.68,1.55,1.55,0,0,1-.2-.87,2,2,0,0,1,.32-.94,2.06,2.06,0,0,1,.71-.7,1.72,1.72,0,0,1,.89-.21,2.08,2.08,0,0,1,.92.3,1.89,1.89,0,0,1,.66.66,1.58,1.58,0,0,1,.21.85,1.84,1.84,0,0,1-.31.89A1.69,1.69,0,0,1,25.31,46.47Zm-.46-1a.68.68,0,0,0,.08-.6.87.87,0,0,0-.4-.49.79.79,0,0,0-.59-.12.9.9,0,0,0-.54.32Z"/><path class="cls-3" d="M33.82,45.68l-.77,4.39-.9-.15.5-2.86L31,49.71l-.68-.11-.7-3.06-.5,2.85-.9-.15L29,44.85,30,45l.84,3.51,2-3Z"/><path class="cls-3" d="M35.88,49.7a2.11,2.11,0,0,1-1-.69,2.36,2.36,0,0,1-.34-2.32,2.25,2.25,0,0,1,.72-.92,2.37,2.37,0,0,1,1.12-.46,2.55,2.55,0,0,1,1.2.13,2.34,2.34,0,0,1,.95.69,2.3,2.3,0,0,1,.47,1.12,2.24,2.24,0,0,1-.14,1.21,2.14,2.14,0,0,1-.71.92,2.46,2.46,0,0,1-1.12.45A2.32,2.32,0,0,1,35.88,49.7Zm1.77-.94a1.21,1.21,0,0,0,.41-.58,1.52,1.52,0,0,0,.06-.8,1.65,1.65,0,0,0-.28-.75,1.2,1.2,0,0,0-.56-.44,1.4,1.4,0,0,0-.74-.08,1.42,1.42,0,0,0-.69.28,1.18,1.18,0,0,0-.41.57,1.52,1.52,0,0,0-.06.8,1.57,1.57,0,0,0,.28.75,1.28,1.28,0,0,0,.56.45A1.43,1.43,0,0,0,37,49,1.35,1.35,0,0,0,37.65,48.76Z"/><path class="cls-3" d="M41.88,44.06a2,2,0,0,1,1.09.38,2.34,2.34,0,0,1,.76,1,2.24,2.24,0,0,1,.21,1.19,1.89,1.89,0,0,1-.44,1,2.62,2.62,0,0,1-1,.76L41,49,39.17,45l1.45-.64A2.76,2.76,0,0,1,41.88,44.06ZM43,46.9a1.45,1.45,0,0,0-.09-1.14,1.39,1.39,0,0,0-2-.75l-.59.26L41.53,48l.59-.25A1.46,1.46,0,0,0,43,46.9Z"/><path class="cls-3" d="M44.18,43.09l.69.88,1.21-.91.44.56-1.21.91.74.94,1.36-1,.45.57-2.08,1.58L43,43.06l2.09-1.58.45.58Z"/></g></g></svg>